<?xml version="1.0" encoding="utf-8"?>
<!-- Generator: Adobe Illustrator 27.5.0, SVG Export Plug-In . SVG Version: 6.00 Build 0)  -->
<svg version="1.1" xmlns="http://www.w3.org/2000/svg" xmlns:xlink="http://www.w3.org/1999/xlink" x="0px" y="0px"
	 viewBox="0 0 305.6 328.7" style="enable-background:new 0 0 305.6 328.7;" xml:space="preserve">
<style type="text/css">
	.st0{fill:#1E90B3;}
	.st1{fill:none;}
	.st2{fill:#FFFFFF;}
	.st3{fill:#D1D3D4;}
	.st4{fill:#3CB4E7;}
	.st5{fill:#A19F9F;}
	.st6{fill:#FFF200;}
</style>
<g id="Black">
</g>
<g id="Layer_3">
	<path class="st0" d="M252.2,123.9c0.3-1.3,0.7-2.6,0.6-3.9c-0.8-9.1-3-20.4-13.6-28.1c0.6-1,1-2.1,0.9-3.4
		c-0.1-0.6-0.1-1.2-0.2-1.8l-0.1-0.7c-0.4-3.9-0.9-8.3-2.1-11c-1.2-2.6-3.8-4-5.9-5.1c-0.3-0.1-0.5-0.3-0.8-0.4
		c-0.7-0.4-1.3-0.7-1.8-1c0.2-0.3,0.5-0.5,0.6-0.6l1.5-0.5c5.9-2.1,12.5-4.4,17.6-9.8c2.7-2.8,3.6-5.6,2.7-8.1
		c-0.6-1.7-2.2-3.9-6.5-4.5c-5.6-0.9-11.3-1.2-16.8-1.5l-1-0.1c-0.4,0-0.6-0.1-0.6-0.1c0,0-0.2-0.2-0.3-0.4
		c-0.8-1.2-0.8-1.6-0.8-1.6c0,0,0.1-0.2,0.6-0.8c1.2-1.2,1.8-2.7,2.3-3.7l0.1-0.3c3.3-7.6,2.7-14.4-1.9-20c-2.7-3.3-6.1-5-9.9-5
		c-0.4,0-0.9,0-1.3,0.1l-1.7,0.2c-0.3-2.8-1.5-5.5-3.5-7.6c-2.6-2.6-5.6-4-9-4c-7.6,0-14.4,6.7-17,9.2c-0.2,0.2-0.3,0.3-0.5,0.4
		l-3.5,3.3c-0.7,0.7-1.4,1.3-2.1,2l-2.2,0l-0.1,0l-0.1,0c-13.8,1.1-24.1,6-31.5,14.7c-4.7,5.6-5.8,12.4-3.1,19.8c0,0.1,0,0.2,0,0.3
		c-5.8,5.6-33.9,32.1-40.6,38.3c-1.9-0.9-3.7-1.3-5.5-1.3c-3.9,0-7.2,2-10.1,5.9l-0.1,0.2c-0.2,0.3-0.6,0.9-0.9,1.2
		c-0.4,0.1-0.9,0.2-1.4,0.3c-2.5,0.5-5.8,1.1-8.3,3.9c-7.9,1.2-14.8,4.1-20.4,8.9c-6.9,5.7-9.4,13.2-6.9,20.5c0.4,1.1,0.8,2.1,1.2,3
		c1.2,2.8,1.6,3.8,0.8,5.2l0,0.1c-0.3,0.5-0.5,1-0.7,1.6c-3.2,1.3-5.9,2.4-7.3,4.8c-0.6,1-1,2.8,0.2,5.2c2.7,5.3,14,14.3,18.7,14.9
		c0.4,0.1,0.9,0.1,1.4,0.1c1.3,0,4.6-0.2,6.6-2.4c1.1-1.1,1.6-2.5,1.5-4c1,0.4,2.1,0.7,2.9,1.1c0.8,0.3,2.1,0.8,2.3,1
		c0,0,0.1,0.2,0.4,0.8c2.3,5.6,5.7,6.5,7.6,6.5c0.7,0,1.5-0.1,2.2-0.4l0.1,0l0.1-0.1c0.5-0.2,1.4-0.5,2-0.6c3,1.3,17,10.2,23.7,16.8
		l0.8,0.8c7.6,7.5,16.2,16,29.4,16.9c9,0.6,14.6,1.2,17.9,1.6c1.3,0.1,2.2,0.2,2.9,0.3c0.4,0,0.9,0.1,1.4,0.1
		c3.4,0,12.4-0.8,22.4-8.5c1.7,1.2,4.4,1.8,7.5,1.8c4.5,0,8.9-1.4,11.9-3.9c3.6-2.9,5.4-4.3,6.1-4.9c3.9-1.3,26.9-9.7,30.7-28.1
		c1-1.4,3.7-5.2,6.1-9.9c4.2-8.3,5.5-15.3,3.8-20.8C251.6,126,252,124.7,252.2,123.9z M61.5,159.3C61.5,159.3,61.5,159.3,61.5,159.3
		c0.1,0,0.3,0,0.4,0C61.7,159.3,61.6,159.3,61.5,159.3z M201.2,3c0,0,0.1,0,0.1,0c0,0,0,0,0,0C201.3,3,201.3,3,201.2,3z"/>
	<g>
		<g>
			<path d="M65.9,311.7v-16.4l-2.3-2.9h18.8v4.8H71.3v9.7h5.7v-2.5h-2.7v-4.8h8.1v12H65.9z"/>
			<path d="M102.1,305.1h-3l2.9,6.7h-5.4l-3-6.7H91v6.7h-5.4v-16.4l-2.3-2.9h18.8V305.1z M91,300.3h5.8v-3H91V300.3z"/>
			<path d="M110.7,299.7h11.2v4.8h-11.2v2.5h11.2v4.8h-16.5v-16.4l-2.3-2.9h18.8v4.8h-11.2V299.7z"/>
			<path d="M130.4,299.7h11.2v4.8h-11.2v2.5h11.2v4.8H125v-16.4l-2.3-2.9h18.8v4.8h-11.2V299.7z"/>
			<path d="M142.4,292.5h7.6l5.8,8.6v-8.6h5.4v19.3h-5.3l-5.8-8.6v8.6h-5.4v-16.4L142.4,292.5z"/>
			<path d="M164.4,295.3l-2.3-2.9h18.8v6.2l-2.9,3.4h2.9v9.6h-16.5V295.3z M172.6,299.7l2.1-2.4h-4.9v2.4H172.6z M169.8,307h5.7
				v-2.5h-5.7V307z"/>
			<path d="M200.6,311.7h-5.4v-6.2h-5.8v6.2h-5.4v-16.4l-2.3-2.9h18.8V311.7z M189.5,300.8h5.8v-3.5h-5.8V300.8z"/>
			<path d="M201.5,292.5h7.6l5.8,8.6v-8.6h5.4v19.3H215l-5.8-8.6v8.6h-5.4v-16.4L201.5,292.5z"/>
			<path d="M221.2,292.5h7.7v7.3h2.8l2.9-3.5v-3.8h5.4v6.2l-2.9,3.4l2.9,3.4v6.2h-5.4V308l-2.9-3.5h-2.8v7.3h-5.4v-16.4L221.2,292.5
				z"/>
		</g>
		<polygon points="55.9,299.7 53.2,299.7 51.8,302.1 53.2,304.5 55.9,304.5 57.3,302.1 		"/>
		<polygon points="252.2,299.7 249.5,299.7 248.1,302.1 249.5,304.5 252.2,304.5 253.6,302.1 		"/>
	</g>
	<path class="st1" d="M52,233.7c-5.4,1.2-10.9,2.5-16.2,3.8c0,3.7-0.1,7.4-0.1,11.1c5.4-1.7,10.8-3.2,16.2-4.6
		C51.9,240.6,52,237.2,52,233.7z"/>
	<g>
		<path class="st0" d="M182.7,261.8c2.8,0.8,5.4,1.2,7.6,1.2c5.3,0,9-2,11.5-4.2c-12.7-2.5-26.1-4.3-40-4.9
			C169.8,257.1,177.1,260.2,182.7,261.8z"/>
		<path class="st0" d="M300.7,174.5l-45,0l-2.8,0H42.7h-3v0h-35H0l1.9,4.2l3.9,8.5c1.9,4.1,3.8,8.2,5.7,12.2l-0.3,87l0,5l4.4-2.4
			l0.2-0.1c24.6-11.7,49.2-20.3,73.1-25.6c1.3,2.2,3.8,5.6,7.6,7c5.8,11.2,15.1,13.6,21.9,13.6c8,0,14.7-3.2,15-3.4l9.6-4.7
			l-6.1-0.6c7.6-4.8,10.1-11.8,10.3-12.5l1.5,0.7c16.5,7.7,30.7,14.4,43.6,14.4c9.9,0,18.5-4,26-12.2c21.9,5.8,44,14.2,69.2,26.5
			l0.2,0.1l4.5,2.7v-5.3v-88.4l11.2-22.5l2.2-4.3L300.7,174.5z"/>
	</g>
	<g>
		<g>
			<rect x="91.7" y="323.8" width="41.1" height="1"/>
		</g>
		<g>
			<rect x="172.6" y="323.8" width="41.1" height="1"/>
		</g>
		<g>
			<path d="M141.1,324.8h-1.8v2.8h2l-0.1,1h-3v-8h3v1h-1.9v2.3h1.8V324.8z"/>
			<path d="M142.9,326.3v0.5c0,0.7,0.2,1,0.7,1c0.5,0,0.7-0.4,0.7-1.1c0-0.9-0.2-1.2-1-1.9c-0.9-0.7-1.3-1.1-1.3-2.3
				c0-1,0.3-2.1,1.7-2.1c1.4,0,1.6,0.9,1.6,1.9v0.4h-1.1v-0.4c0-0.6-0.1-1-0.6-1c-0.5,0-0.6,0.4-0.6,1c0,0.6,0.1,0.9,0.8,1.5
				c1.2,0.9,1.5,1.4,1.5,2.7c0,1.1-0.4,2.2-1.8,2.2c-1.4,0-1.8-0.9-1.8-2v-0.5H142.9z"/>
			<path d="M147,321.6h-1.3v-1h3.7v1h-1.3v7H147V321.6z"/>
			<path d="M149.2,328.6v-1.7h1.1v1.7H149.2z"/>
			<path d="M153,328.6V322c-0.2,0.1-0.6,0.1-0.8,0.1v-0.8c0.5-0.1,0.9-0.3,1.1-0.6h0.8v7.8H153z"/>
			<path d="M156.2,326.8v0.1c0,0.5,0.2,0.8,0.6,0.8c0.5,0,0.7-0.4,0.7-1.5v-1.2c-0.2,0.3-0.5,0.5-1,0.5c-1,0-1.4-0.8-1.4-1.9v-1.1
				c0-1.2,0.6-1.9,1.7-1.9c1.2,0,1.7,0.7,1.7,2v3.3c0,1.4-0.1,2.6-1.7,2.6c-1.4,0-1.7-0.9-1.7-1.8v0H156.2z M156.1,322.5v1.2
				c0,0.5,0.1,0.9,0.6,0.9c0.5,0,0.7-0.5,0.7-1.2v-0.9c0-0.6-0.2-0.9-0.7-0.9C156.3,321.6,156.1,321.9,156.1,322.5z"/>
			<path d="M159.2,326.8v-0.8c0-1,0.4-1.3,0.8-1.5c-0.4-0.3-0.7-0.7-0.7-1.5v-0.4c0-1.2,0.6-1.8,1.7-1.8c0.9,0,1.6,0.5,1.6,1.9v0.3
				c0,1-0.3,1.3-0.7,1.5c0.5,0.2,0.8,0.6,0.8,1.5v0.7c0,1.4-0.6,2-1.8,2C160,328.7,159.2,328.2,159.2,326.8z M161.7,326.8v-1
				c0-0.7-0.2-0.9-0.7-0.9s-0.7,0.3-0.7,0.9v1c0,0.6,0.2,1,0.7,1C161.5,327.8,161.7,327.4,161.7,326.8z M160.4,322.5v0.6
				c0,0.5,0.2,0.9,0.7,0.9c0.4,0,0.6-0.3,0.6-0.9v-0.6c0-0.5-0.1-0.9-0.6-0.9C160.5,321.6,160.4,322,160.4,322.5z"/>
			<path d="M164.6,326.8v0.1c0,0.5,0.2,0.8,0.6,0.8c0.5,0,0.7-0.4,0.7-1.5v-1.2c-0.2,0.3-0.5,0.5-1,0.5c-1,0-1.4-0.8-1.4-1.9v-1.1
				c0-1.2,0.6-1.9,1.7-1.9c1.2,0,1.7,0.7,1.7,2v3.3c0,1.4-0.1,2.6-1.7,2.6c-1.4,0-1.7-0.9-1.7-1.8v0H164.6z M164.5,322.5v1.2
				c0,0.5,0.1,0.9,0.6,0.9c0.5,0,0.7-0.5,0.7-1.2v-0.9c0-0.6-0.2-0.9-0.7-0.9C164.7,321.6,164.5,321.9,164.5,322.5z"/>
		</g>
	</g>
	<path d="M252.9,177.5L252.9,177.5l-210.2,0v0h-38l3.9,8.5c2,4.3,4,8.6,6,12.7l-0.3,87.6l0.2-0.1c26.9-12.8,52.3-21.3,76.1-26.4
		c0.1,0.3,0.1,0.4,0.1,0.4s2.6,6.3,7.8,7.5c0.1,0.1,0.2,0.2,0.3,0.3c10.1,21.3,33.3,9.9,33.3,9.9c-1.3-0.1-3.7-2-3.7-2
		c12.5-3.4,16-14,16-14c-6.1,4.7-22.4,1.8-31-3.1c-6.2-3.5-11.6,1.3-13.4,3.3c-0.1,0-0.2,0.1-0.2,0.1c-0.6-0.5-2.2-1.8-2.9-3.6
		c12.8-2.5,25.2-4,37.1-4.6c4.1,1.5,8.6,3.4,13.6,5.7c29.6,13.8,50.8,24.7,69.7,2.6c26.6,6.8,50.4,16.8,71.6,27.2l0.3,0.2v-89.1
		l11.5-23.1L252.9,177.5z M182.7,261.8c-5.6-1.7-12.9-4.7-20.9-8c14,0.7,27.3,2.4,40,4.9C198.3,262,192.3,264.6,182.7,261.8z"/>
	<g>
		<path class="st2" d="M147.3,230.5l0-48h-17.5v66.3l1.1-0.1c15.1-0.8,30.3-0.5,45.3,1l1.1,0.1v-18.2l-0.9-0.1
			C166.7,230.9,156.9,230.5,147.3,230.5z"/>
		<path class="st2" d="M13.3,183.9c2.1,4.7,4.3,9.3,6.4,13.7l-0.3,80.8l1.4-0.7c14.6-7,30-12.9,45.6-17.5l0.7-0.2v-39.6l-1.1,0.2
			c-1.7,0.2-3.3,0.5-5,0.7c1.9-3.4,3.9-6.8,6-10.3l0.1-0.2v-28.4H12.6L13.3,183.9z M36.9,215l0.1-11.2l13.3-1.1L44.1,214L36.9,215z
			 M36.5,247.4l0.1-9l14.2-3.4l-0.1,8.3L36.5,247.4z"/>
		<path class="st2" d="M106.6,232.7l-0.6,0.1c-5.2,0.6-10.3,1.2-15.4,1.9c0-0.5,0-1,0-1v-51.2H74.1v75.1l1.2-0.3
			c15.4-3.9,31.1-6.5,46.8-7.8l0.9-0.1l0.7-66.9h-17.1V232.7z"/>
		<path class="st2" d="M235,182.5l1,50.3l0.8,0.2c10.3,2,20.5,4.4,30.5,7.1l0.1,9.3c-9.8-3.2-19.9-6-30-8.4l-1.3-0.3l0.4,21.3
			l0.7,0.2c15.6,4.9,31,11.2,45.6,18.7l1.5,0.7v-62.6l-0.8-0.2c-10.1-1.9-20.4-3.5-30.7-5l-0.1-8.5c10.2,0.9,20.5,2,30.5,3.3
			l1.1,0.1v-9.2l8.4-16.9L235,182.5z"/>
		<path class="st2" d="M229.3,239.3c-8.6-1.9-25.3-4.5-29.2-5.1v-51.7h-16.8v68.1l0.9,0.1c15.2,1.9,30.4,5,45.1,9.3l1.3,0.4
			l-0.4-20.8L229.3,239.3z"/>
	</g>
	<path class="st3" d="M176.3,248.8v-16.2c-10-0.8-20-1.1-30-1.1c0-5,0-10.1,0-15.1c-5.2,0-10.4,0.1-15.5,0.3v31.1
		C145.9,247,161.1,247.3,176.3,248.8z"/>
	<path class="st3" d="M66.1,259.3v-37.7c-2.3,0.3-33.4,5.4-45.6,7.9c-0.1,16.1-0.1,31.2-0.2,47.2C35.2,269.7,50.6,263.8,66.1,259.3z
		 M51.8,233.7l-0.2,10.3l-16.2,4.6l0.1-11.1L51.8,233.7z"/>
	<path class="st3" d="M122,248.4c0.1-10.5,0.2-21,0.3-31.5c-5,0.2-9.9,0.4-14.7,0.7v15.9l-1.4,0.1c-5.5,0.6-11,1.3-16.5,2.1
		c0-0.7,0-2.1,0-2.1v-14.8c-5,0.4-9.8,0.9-14.6,1.4v36C90.6,252.4,106.3,249.8,122,248.4z"/>
	<path class="st3" d="M268.4,239.3c0,3.8,0.1,7.7,0.1,11.5c-10.3-3.4-20.7-6.3-31.2-8.8l0.4,19.2c15.6,4.9,30.9,11.2,45.7,18.7
		c0-17.2,0-32.7,0-49.9c-14.4-2.9-30-6.4-46.6-8.3l0.2,10.3C247.6,234,258.1,236.5,268.4,239.3z"/>
	<path class="st3" d="M229.4,259c-0.1-6.2-0.2-12.5-0.4-18.7c-9.8-2.1-30-5.3-30-5.3v-17.3c-4.9-0.3-9.8-0.5-14.8-0.7v32.7
		C199.4,251.6,214.6,254.7,229.4,259z"/>
	<path d="M204.6,255.6c-2.8,4-9.2,10-21.9,6.2c-18.4-5.4-54.4-25.7-75.8-20.2s-16.2,18.7-16.2,18.7s2.6,6.3,7.8,7.5
		c0.1,0.1,0.2,0.2,0.3,0.3c10.1,21.3,33.3,9.9,33.3,9.9c-1.3-0.1-3.7-2-3.7-2c12.5-3.4,16-14,16-14c-6.1,4.7-22.4,1.8-31-3.1
		c-6.2-3.5-11.6,1.3-13.4,3.3c-0.1,0-0.2,0.1-0.2,0.1c-1.2-0.9-5.5-4.6-1.6-9.1c4.5-5.2,17.5-8.3,49.4,6.7
		c31,14.5,52.9,25.7,72.4-0.8C214.9,257.6,209.7,257.2,204.6,255.6z"/>
	<path class="st4" d="M213.9,261.4c0,0-11.9,12.9-28,8.5c0,0,13.9,1.6,22-9.7L213.9,261.4z"/>
	<path class="st4" d="M134,268.5c0,0-9.8,6.3-14.4,4.9c0,0,1.3,2.2,4.7,3.1c-0.3-0.1-14.4,3-21-9.6c0,0,7.3,4,11.3,2.9
		c0,0-2.1-1.4-2.1-2.2C112.5,267.6,124.6,272.6,134,268.5z"/>
	<path d="M248.9,127.3c-0.7-2.1,1.1-5.2,0.9-7.1c-0.7-8.6-2.9-19.4-13.1-26.4c-0.7-0.4-1.3-0.9-2-1.3c0.2-0.2,0.4-0.4,0.6-0.6
		c1.1-1.1,1.9-2,1.8-3.1c-0.1-0.6-0.1-1.2-0.2-1.9c-0.4-3.7-0.8-8.3-1.9-10.8c-0.9-1.9-3.3-3-5.3-4.1c-0.9-0.5-1.7-0.9-2.4-1.4
		c-0.2-0.1-0.4-0.2-0.6-0.4c-0.2-0.1-0.5-0.2-0.5-0.3c-0.3-0.8-0.2-1.7,0.2-2.6c0.5-1.1,1.5-2.1,2.5-2.4l1.5-0.5
		c5.8-2.1,11.9-4.2,16.4-9c1.9-2,2.5-3.7,2.1-5.1c-0.5-1.3-1.9-2.2-4.2-2.5c-5.5-0.9-11.1-1.2-16.5-1.5l-1-0.1
		c-1.7-0.1-2.4-0.5-3.3-1.8c-1.8-2.6-1.8-4.3,0.2-6.2c0.8-0.8,1.3-1.9,1.7-2.8l0.1-0.3c2.9-6.6,2.4-12.2-1.5-17
		c-2.4-2.9-5.2-4.2-8.7-3.9l-1.7,0.2l1,1.4c3.2,4.4,3.2,5.7,0.6,9.5c-1,1.4-2,2.5-3,3.2c-0.4,0.2-1.4,0.3-2,0.1
		c-1.8-0.8-3.6-1.7-5.4-2.7c-0.4-0.2-0.7-0.4-1.1-0.6c0.9-0.7,1.8-1.5,2.6-2.4c1-1.2,1.8-2.7,2.6-4.1c2.6-4.2,2-9.7-1.1-12.9
		c-8.5-8.7-20.1,3.8-22.3,5.8l-3.5,3.3c-6.4,6.2-13.3,12.5-17.2,16.3l-3.2,3c-0.5-0.4-1.5-1.7-1.4-2c1.6-8.8,16-14.6,15.5-14.5
		c-13,1.1-22.6,5.5-29.4,13.7c-4,4.8-4.9,10.5-2.6,16.9c0.3,0.8,0.2,2.5-0.3,2.9c-5.1,5.1-42.5,40.1-42.5,40.1
		c-0.4,0-0.6-0.1-1.2-0.4c-4.9-2.7-9.2-1.6-12.6,3.2l-0.1,0.2c-0.6,0.9-1.5,2.1-2.2,2.2c-0.7,0.2-1.3,0.3-2,0.4
		c-2.5,0.5-5.4,1-7.3,3.8c-0.1,0-0.2,0-0.3,0c-0.3,0-0.5,0-0.7,0c-7.4,1.1-13.8,3.8-19,8.2c-5.9,5-8.1,11.1-6,17.2
		c0.3,1,0.7,1.9,1.1,2.8c1.2,2.7,2.2,5,0.7,7.8c-0.2,0.3-0.7,1.2-0.7,1.9l-1,0.9c-3.6,1.4-5.6,2.3-6.4,3.8
		c-2,3.5,12.7,15.2,16.7,15.6c2.4,0.3,6.3-0.4,6.2-3.2l-0.8-2.6c-0.3-0.9,0.6-1.7,1.4-1.4c1.9,0.6,4.5,1.5,6.4,2.2
		c3.1,1.2,3.6,1.5,4.4,3.5c0.8,2,2.7,5.5,6,4.4c0,0,2-0.9,3.5-0.9c1.6-0.1,18,10.3,25.5,17.7c7.5,7.4,15.8,16,28.3,16.9
		c12.5,0.8,18.4,1.7,20.8,1.9c2.5,0.2,11.6,0,21.8-7.9c0,0,1.6-1.5,3.3-0.1c2.5,1.9,10.9,2.3,15.9-1.8c5-4.1,6.6-5.2,6.6-5.2
		c2.4-0.7,26.1-8.9,29.3-26.7C239.1,155.8,252.5,138.7,248.9,127.3z"/>
	<path class="st5" d="M165.7,23c0,0-14.6,7.2-13.1,15.6c1.5,8.3,7.1,6.5,7.1,6.5s-6.8-4.2-3.7-10.9c0,0,3.5,5.3,12.7,5.7
		c9.2,0.5,8.3,5.7,8.3,5.7s0,4.4-5.7,4.5c-5.7,0.1-19,1.3-21.5-11.5c0,0-2.3,11,6.8,14c0.9,0.3,1.9,0.5,2.9,0.5l13.6,1.1l-4,3.4
		c0,0-17.2,2.4-23-9.9C146.1,47.7,139.2,31.9,165.7,23z"/>
	<path class="st5" d="M213.8,32.8c-0.2,0.1,2.4,2.5,2.4,2.5s4.8-4.2,5.1-7.5c0,0,0.7,3.6-3.6,9l1.2,1.2c0,0,12.2-9.9,0.4-18.9
		C219.3,19.2,222.8,29.3,213.8,32.8z"/>
	<path class="st2" d="M177.2,38l-3-1.1c0,0,6.2-5.2,17.8-5.2c0,0-1.3,14.5,2.3,17.2c0,0-1.6-15.3,0.9-17.6c0.2-0.2,6.2-2.8,11.1-0.6
		S221,45.5,221.8,48c0,0-12,4.9-17.2,7.7c-5.1,2.8-16.5,9.7-26.2,9.5c0,0,17.5-5.8,21.8-11.7c0,0-9.2,5.4-12.4,5s-2.7-2.3-1.5-3.4
		s8.5-7.6,2.3-12.5c-4.5-2.7-7.8-3.8-7.1-4.9c0.8-1.2,3.6-1.9,3.6-1.9S181,34.1,177.2,38z"/>
	<path class="st3" d="M165,36l4.5,0.5l27.6-23.1c0,0,4.7,2.9,5.5-2.3c0,0,4,3.6-1.4,10.6c0,0,5.5-3,5.1-8.9s-4.5-6.6-6.5-6.2
		c-0.3,0.1-2.7-0.2-11.8,8S166.1,34.3,165,36z"/>
	<circle class="st3" cx="200.6" cy="18" r="1.2"/>
	<polygon class="st3" points="146.2,53.5 150.4,57 112.3,93.6 116.9,86.3 104,95.8 101.9,96 	"/>
	<path class="st4" d="M188.2,66.8c0,0-4.7-0.3-7.1,3.1c-0.5-0.6-0.2-2.7-0.2-2.7s-5.9-0.1-8.6,1.8s-6.4-1.9-6.4-1.9
		s-9.7-8.2-19.7,0.5c0,0,5.1,1,6.4,5.4c0,0,2.6-3.7,1.6-5c0,0,1.8-1.2,3.5,1.2c1.7,2.4,4.1,1.6,5,1.2c0.9-0.4,2.9-1.3,4,0.6
		s3.1,5.9,5.3,4.4s4.5-4.2,6.3-4.1c0,0-5.7,6.5-4.5,11.6c0,0,6-7.1,10.5-6.7c0,0-18.1,12.3-1.3,24.5c0,0-2.1-10,1.6-13.3
		c0,0-1.6,17.2,10.5,18c5.3,0.2,11.8-4.1,11.8-4.1s6.4-6.5,16.9-2.8c3.9,1.6,8.9,2.6,8.9,0.1s-1-5.2-6.7-6.1
		c-5.6-0.9-16.2-0.9-23.9,6.8c-2.7,0.3,0.7-3.2,4.8-6c0,0-11.5-3.4-12.5,8.4c0,0-6.4-9-2.8-15.1c2.8-4.1,7.3-7.2,12.2-5.9
		c4.9,1.3,6.1,7.1,9.8,8.2c3.6,1.2,8.2,0.3,8.2,0.3s0.1-3.8,1.1-4.4c0,0-8,1.1-7.6-7.8c0,0,10.4,1.3,13.2-0.6c0,0-8.2-6.9-12.6-7.3
		l-3.3,3.2c0,0,3.2,1.4,3.4,2.4c0,0-8.3-0.6-11.7,3.2c0,0-3.8,1.7-8.7,0.3l2.1-0.9c0,0-5.8-4.4-6.4-9.3c0,0-3.7,1.1-3.7,3.7
		C187.6,71.7,187.2,68,188.2,66.8z"/>
	<path class="st4" d="M217.3,66.8c0,0,4.4,1.6,5.9,2.8c0,0,1.3-1.2,1-6.5l-2.3,3.2L217.3,66.8z"/>
	<path class="st4" d="M198.8,66.2c0-0.3,13.1,0.3,13.1,0.3s1.6,1,1,2.2c-0.5,1.2-3.7,5.6-5.2,3.7C205.1,68.8,198.8,66.7,198.8,66.2z
		"/>
	<path class="st2" d="M194.5,67.4c0,0,8,2.3,10.7,6.1c0,0-4,3.9-7.2,0.4C194.8,70.4,194.5,67.4,194.5,67.4z"/>
	<path class="st0" d="M218,78.9c0,0,3.6,1.2,7,0.1c3.3-1.1,6.2-2,7.2-0.9s0.1,3.1-0.6,3.6c-0.8,0.6-0.9,2.5-1.1,2.9
		c-0.3,0.4-2.6,0.7-3.1-0.3c-0.5-1-2.9-3.2-4.7-3.3c-1.7-0.1-0.6-0.1-0.6-0.1l1.1,1.6C223.2,82.6,219.5,84.2,218,78.9z"/>
	<path class="st6" d="M224.6,84.3c0,0-4.1,6.9,3.3,7.6c4.3,0.4,5.7-1.3,6.2-3c0.4-1.5-0.1-3.2-1.1-4.4c-0.2-0.3-0.4-0.7-0.7-0.8
		l-1,1.8c0,0,2.7,3.7-1.9,4.5c-4,0.7-4.4-2.7-3.4-4.6L224.6,84.3z"/>
	<path class="st0" d="M227,86.4c0,0,1.8,1.5,3.4,0.2c0.3,0.1,0.1,2.3-1.5,2.3C227.1,89,226.7,87.7,227,86.4z"/>
	<path class="st2" d="M213.8,90.9c0,0-4.3-1.3-5.4-3.5c-1.1-2.1-7.9-9.9-14.8,0.9c0,0,6.1-3.5,8.3-2.5c0,0-8.4,3.5-8.2,9.6
		c0.7-0.8,6.1-8.1,15.1-2.9L213.8,90.9z"/>
	<path class="st2" d="M162.8,98.9l2.5,5.8c0,0-1.8,10.8,11,16c0,0,10.6-1.8,20.7-11.6l5.7-1.9c0,0-10,10.6-15.8,12.9
		c0-0.1,5.6-1,9.4-3.5c0,0-8.2,9.3-20,12.4c0,0-10-5.4-13-12.5C160.6,110.2,160.5,104.7,162.8,98.9z"/>
	<path class="st2" d="M188.2,147c0,0,18.8,7.3,14.6,34c-0.2,1.2-1,2.3-2.1,2.8c-2.6,1.3-7.6,3.4-11.2,2.9c0,0,5.4-9.2,2.1-17.1
		c-2.9-7.1-9.6-17.1-12.8-19.8c-0.4-0.3-0.4-1,0-1.3l0.7-0.7c0,0,7.3,0.7,10.7,3.8C190.4,151.1,190.1,148.7,188.2,147z"/>
	<path class="st4" d="M186.8,172.9c0.4-6.5-5.7-15.9-9.5-19.9c-4.8-5-15.3,0.7-17.3,1.4c-0.8,0.3-1.1,0.9-1.3,1.6
		c-0.3,1,0,2.2,0.7,3c4.2,5.3,2.2,10,2.2,10c-12.3-20.5-18.2-18.5-18.2-18.5c10.1,7.8,10.6,15.8,10.6,15.8c-0.8-2.9-7.2-8.5-14-13.1
		c-6.8-4.5-14.2-6.4-19.4-6.9c-5.9-0.6-19.2-3.8-21.5-4.6c-2.3-0.8-2.6,0.8-2.6,0.8s-4.2,7.8-5.9,10.5c-1.7,2.8-0.4,4.1,0.1,5.2
		c0.5,1,10.7,7,15.1,10.2c6.9,5,16,14.5,24.2,19.6c2,1.2,10.6,5.9,18.9,3.5c8.3-2.5,16-4.2,16-4.2c-0.5,2.2-8.6,5.8-8.6,5.8
		c15.1,3.5,27.5-9.7,27.5-9.7c-2.8,1.6-16.6,5.7-16.9,5.6c0.7-0.8,15.2-8.4,15.2-8.4S186.4,179.4,186.8,172.9z M121.3,159.2
		c-14.4-6.9-16.1-7.7-21.8-8.6c0,0,8-0.8,15.1,3.1c7.1,3.9,19.5,8.2,26.4,6.9C141,160.5,135.7,166,121.3,159.2z"/>
	<path class="st2" d="M92.3,135.6c0,0-2.2,5.4-9.4,13.4c0,0,7.2-11.8,7.1-16.4c0-4.6-4.5-15.7-4.8-16c-0.3-0.3-3.1-5.8-6.8-3
		c-3.8,2.8-5.9,5.5-8.1,5.9c-2.2,0.4-6.7,2.3-7.3,5.7s-2,5.9-4.3,7.4s-4.9,4-3.9,6.8c0.9,2.9,6.1,6.9,12.1,8.7
		c6,1.8,8.3,2.5,8.9,3.3s0-1.7-2.9-3c0,0,6,1.3,7.4,5c1.4,3.7,2.9,6.2,3.9,4.5c1-1.6,10.7-18.4,11.4-19.3
		C95.6,138.6,96.3,134.7,92.3,135.6z M63.7,136c-1.5,1.8-0.5,3.1-0.5,3.1s-1.7,0.1-1.6-2.3c0.1-2.4,5.6-5.1,5.6-5.1
		C67,133.3,65.2,134.2,63.7,136z M87.1,128.9c1.1,3.5,0.6,5.4,0.6,5.4s-2-0.9-2-3.5s-2.1-10.1-2.1-10.1
		C85.6,121.5,86,125.4,87.1,128.9z M70,128.6c0,0-1.6-3.8,1.8-5.4c3.4-1.6,4.8-2.4,5.3-3.4c0,0-0.5,3.5-3.1,4.1
		C71.5,124.5,70,128.6,70,128.6z M78.5,133.2c0,0-2.1-2.7-3.7-2.6c0,0,4.1-0.7,5.4,2c1.3,2.7,2.1,4,3.2,4.6
		C83.3,137.1,79.8,136.9,78.5,133.2z"/>
	<g>
		<path class="st0" d="M197.4,63.1c0,0,13.4,1.7,18.5-0.7s22.3-11.5,26.9-11.1c0,0-11.3-3.5-18.8-0.8
			C216.5,53.2,198.8,62.7,197.4,63.1z"/>
		<path class="st0" d="M244.1,52.4c0,0-0.9,3.8-16.3,11.1C227.9,63.5,250.2,56.3,244.1,52.4z"/>
		<path class="st0" d="M171.4,88.1c0,0-1.1,13,13.6,20.4c0,0-8.5,0.7-13.5-6.6c0,0,2.3,7,8.5,9c0,0-1.2,4.9-4.7,4.3
			c-3.5-0.6-6.3-2.7-6.6-5.5c0,0,1.5,0.9,2.6,0.8c0,0-6.2-11.7-5-16.6C166.4,94,166.5,88,171.4,88.1z"/>
		<path class="st0" d="M219.1,110.6c0,0-8-0.3-11,2c0,0,1.9-6.5,10.4-6.5s11.1,3.5,11.1,3.5l-5.5,0.3c0,0,15.7,5.3,18.1,16
			c3.1,14.2-2.8,20.7-4.5,23.6c0,0,0.9-6.1-2-10.7c0,0,0.3,26.4-17.8,35.2c0,0,21.6-22.7,9.1-55.4c0,0,2.8,25-10.8,33.9
			c0,0-2.7-12.3-11.1-14.6c0,0,14.4,18.8,5.3,37.5c0,0-1.4-30.4-26.3-32.3c0,0-5.5-9.6,5.4-16.2c0,0-3.9,8.9-1.7,13.4
			C187.7,140.2,195.4,117.1,219.1,110.6z"/>
		<path class="st0" d="M160.4,118.4l5.2,7.6c0,0-0.3,13.3-15.5,17.6c-5.8,0.3-11-1.6-11.6-3c-0.6-1.3-1-1.8,0.5-3.7
			c1.5-1.8,2.4-4.5,1.6-6.5c-0.8-2-0.5-10.5,5.2-17.6c0,0-12.5,5.5-14.7,19.8c0,0-7.2-8.6,2.2-23.9c0,0-11.4,5-9.1,21.8
			c0,0-8.6-5.9-8.9-17.2c0,0-3.6,8.6-0.7,14c0,0-7.7,4.4-9.1-1.6c-1.4-6-3.9-8.9-1.2-10.8c5.4-3.9,10.4-7.4,4.5-12.5
			c0,0,5.3-9.4,31.5-14.7c0,0-22.7,7.3-25.8,14.1c0,0,4-2.4,5-0.6c1,1.8,0.8,5.2,3.3,5.2l2.3,0c0,0-3.4,6.6-3.1,9.6
			c0,0,7.7-22.3,33.2-32.7c0,0-18.1,10.2-21.4,21.3c0,0,7.9-8.2,12.6-7.1c4.6,1.1,4.6,5.6,4.2,7.2c-0.4,1.7-2,14.9-0.6,17.6
			s2.2,6.8-0.4,8.5c-2.7,1.6-4.4,5.4-4.4,5.4s10.5-2.8,13.2-7.6C161.2,123.2,160.4,118.4,160.4,118.4z"/>
		<path class="st0" d="M237.5,100.4l0.5,4.6c0,0,4.6,4.8,4.9,11.1c0.4,0.1,2.6,1.7,2.6,1.7S244.4,104.7,237.5,100.4z"/>
		<path class="st0" d="M54,128.4c0,0-3.6-4.2-1.7-8.9c1.8-4.7,8.4-13.7,22.5-16l-1.9,3.3C72.7,106.9,53.4,111.2,54,128.4z"/>
		<path class="st0" d="M56.9,129.6l3-2.5c0,0,0.4-4.6,2-7c2.3-3.3,7.5-5.8,7.5-5.8l1.4-3.6c0,0-12,5.1-13.1,11.6
			C56.7,128.5,56.9,129.6,56.9,129.6z"/>
	</g>
	<path class="st2" d="M95.2,94.3c-3.7-1.2-6.2,2.4-6.2,2.4s-1.6,4.6-5.4,4.8c-3.7,0.3-4,0.9-4.8,1.8c-0.8,0.9,0.3,3.6-1.9,5.1
		c-2.2,1.5-4.2,5.2-4.2,5.2s6.9-4.7,9.5-3.6c5.3,2.2,7.1,8.6,7.3,11.3c0.2,2.2,0.8,2.6,3,2.7c2.3,0.2,4-3.6,5.1-5.3
		c1-1.6-1.5-2-3.9-5c-1.8-2.2-3.2-4.4-3.9-6.2c-0.1-0.3,0.2-0.5,0.5-0.3c1.5,1.3,3.7,3.4,5.5,5c0.9,0.8,7.1,7.4,7.3-2.2
		C103.2,100.3,99,95.5,95.2,94.3z M97,109c3.3-6.9-1.3-11-1.3-11C104.6,102.6,97,109,97,109z"/>
	<path class="st2" d="M104.7,103.9c0,0,1.3,5.3,0.4,7.2c0.4,0,4.1-2.2,3.6-4.9S104.7,103.9,104.7,103.9z"/>
	<path class="st3" d="M52.6,141.8c0,0-5.8,2.1-5.9,2.7c-0.3,1.6,9,10.6,13.1,11.6c0,0,1.7,0.4,1.8-0.9c0,0-9-6.4-9.7-8.9l4.7,2.9
		c0,0,2.7-1.4,1.1-2.3C55.4,145.6,52.6,141.8,52.6,141.8z"/>
	<path class="st0" d="M125.2,87.8l14.3-13.6c0,0,2.9-0.1,3,1.4c0.1,1.5-1.6,3.8-0.2,5.2l0.6,1.3C142.9,82.1,128.1,85.6,125.2,87.8z"
		/>
	<path class="st4" d="M154,75.3c0,0,3.2,12.1,17.7,7.9c0,0-1.6-3.3,0.3-5.2c0,0-4.3,2-5.9-2.5c0,0-2.3,2,0,4.2c0,0-8.7-1.6-9.8-8.7
		C156.3,71,156.2,73.9,154,75.3z"/>
</g>
</svg>
