<svg id="Capa_1" xmlns="http://www.w3.org/2000/svg" viewBox="0 0 220.3 220.3"><style>.st0{fill:#fff}</style><path class="st0" d="M110.2 0C49.4 0 0 49.4 0 110.2s49.4 110.2 110.2 110.2S220.4 171 220.4 110.2 170.9 0 110.2 0zm0 190c-44 0-79.8-35.8-79.8-79.8s35.8-79.8 79.8-79.8S190 66.1 190 110.2 154.2 190 110.2 190zm40-94.2c0-22.2-15.6-36.1-40.7-36.1H72.2v100.8h21.3v-28.1h15.9c.9 0 1.9 0 2.9-.1l20.5 28.1h26.4l-25-34.3c10.4-6.2 16-17 16-30.3zm-40.7 15.3H93.6v-30h15.9c19.4 0 19.4 11.1 19.4 14.7 0 3.8 0 15.3-19.4 15.3z"/></svg>