<?xml version="1.0" encoding="utf-8"?>
<!-- Generator: Adobe Illustrator 24.0.0, SVG Export Plug-In . SVG Version: 6.00 Build 0)  -->
<svg version="1.1" id="Capa_1" xmlns="http://www.w3.org/2000/svg" xmlns:xlink="http://www.w3.org/1999/xlink" x="0px" y="0px"
	 viewBox="0 0 220.3 220.3" style="enable-background:new 0 0 220.3 220.3;" xml:space="preserve">
<style type="text/css">
	.st0{fill:#FFFFFF;}
</style>
<path class="st0" d="M110.2,0C49.4,0,0,49.4,0,110.2s49.4,110.2,110.2,110.2s110.2-49.4,110.2-110.2S170.9,0,110.2,0z M110.2,190
	c-44,0-79.8-35.8-79.8-79.8s35.8-79.8,79.8-79.8S190,66.1,190,110.2S154.2,190,110.2,190z M150.2,95.8c0-22.2-15.6-36.1-40.7-36.1
	H72.2v100.8h21.3v-28.1h15.9c0.9,0,1.9,0,2.9-0.1l20.5,28.1h26.4l-25-34.3C144.6,119.9,150.2,109.1,150.2,95.8z M109.5,111.1H93.6
	v-30h15.9c19.4,0,19.4,11.1,19.4,14.7C128.9,99.6,128.9,111.1,109.5,111.1z"/>
</svg>
